{"title":"Slutever Season 01 S01 compete WEB-DL soft subs EN","magnet":"magnet:?xt=urn:btih:f1691fbc179db39627ed74095a1b6d5ca4a61fdd&dn=Slutever+Season+01+S01+compete+WEB-DL+soft+subs+EN&tr=udp%3A%2F%2Ftracker.leechers-paradise.org%3A6969&tr=udp%3A%2F%2Fzer0day.ch%3A1337&tr=udp%3A%2F%2Fopen.demonii.com%3A1337&tr=udp%3A%2F%2Ftracker.coppersurfer.tk%3A6969&tr=udp%3A%2F%2Fexodus.desync.com%3A6969","uploader":"grighta","categoryP":"video","categoryS":"tv_shows","size":"2123272674","seeders":"0","leechers":"0","description":"Sex writer Karley Sciortino looks up, down, and inside to find answers that challenge outdated notions of female sexuality, gender, and love. \r\n <a href=\"\nhttps://www.imdb.com/title/tt7829456/\" rel=\"nofollow\" target=\"_NEW\">\nhttps://www.imdb.com/title/tt7829456/</a>\r\n\r\nFile ordering different from IMDB\r\n\r\nExample stats:\r\n\r\n  Duration: 00:20:44.92, start: 0.000000, bitrate: 1498 kb/s\r\n    Stream #0:0: Video: h264 (Main), yuv420p(tv, progressive), 1280x720 [SAR 1:1 DAR 16:9], 25 fps, 25 tbr, 1k tbn, 50 tbc (default)\r\n    Stream #0:1: Audio: aac (HE-AAC), 44100 Hz, stereo, fltp (default)\r\n    Stream #0:2(eng): Subtitle: subrip","last_updated":"2018-07-11T12:06:33.591Z","parsed":{"xt":"urn:btih:f1691fbc179db39627ed74095a1b6d5ca4a61fdd","dn":"Slutever Season 01 S01 compete WEB-DL soft subs EN","tr":["udp://exodus.desync.com:6969","udp://open.demonii.com:1337","udp://tracker.coppersurfer.tk:6969","udp://tracker.leechers-paradise.org:6969","udp://zer0day.ch:1337"],"infoHash":"f1691fbc179db39627ed74095a1b6d5ca4a61fdd","infoHashBuffer":{"type":"Buffer","data":[241,105,31,188,23,157,179,150,39,237,116,9,90,27,109,92,164,166,31,221]},"name":"Slutever Season 01 S01 compete WEB-DL soft subs EN","announce":["udp://exodus.desync.com:6969","udp://open.demonii.com:1337","udp://tracker.coppersurfer.tk:6969","udp://tracker.leechers-paradise.org:6969","udp://zer0day.ch:1337"],"urlList":[]}}